<svg width="56" height="56" fill="none" xmlns="http://www.w3.org/2000/svg"><path d="M19.688 25.083H5.104a4.9 4.9 0 0 1-4.9-4.87V5.628a4.93 4.93 0 0 1 4.9-4.9h14.584a4.93 4.93 0 0 1 4.9 4.9v14.583a4.9 4.9 0 0 1-4.9 4.871ZM5.104 3.617A2.012 2.012 0 0 0 3.121 5.6v14.583a1.983 1.983 0 0 0 1.983 1.984h14.584a1.984 1.984 0 0 0 1.983-1.984V5.6a2.012 2.012 0 0 0-1.983-1.983H5.104Zm45.792 21.466H36.313a4.9 4.9 0 0 1-4.9-4.9V5.6a4.93 4.93 0 0 1 4.9-4.9h14.583a4.93 4.93 0 0 1 4.9 4.9v14.583a4.9 4.9 0 0 1-4.9 4.9ZM36.313 3.617A2.012 2.012 0 0 0 34.329 5.6v14.583a1.983 1.983 0 0 0 1.984 1.984h14.583a1.984 1.984 0 0 0 1.983-1.984V5.6a2.013 2.013 0 0 0-1.983-1.983H36.313ZM19.688 55.27H5.104a4.93 4.93 0 0 1-4.9-4.9V35.789a4.9 4.9 0 0 1 4.9-4.871h14.584a4.9 4.9 0 0 1 4.9 4.9V50.4a4.93 4.93 0 0 1-4.9 4.87ZM5.104 33.834a1.983 1.983 0 0 0-1.983 1.984V50.4a2.012 2.012 0 0 0 1.983 1.983h14.584A2.013 2.013 0 0 0 21.67 50.4V35.817a1.983 1.983 0 0 0-1.983-1.984H5.104ZM50.896 55.27H36.313a4.93 4.93 0 0 1-4.9-4.9V35.789a4.9 4.9 0 0 1 4.9-4.871h14.583a4.9 4.9 0 0 1 4.9 4.9V50.4a4.929 4.929 0 0 1-4.9 4.87ZM36.313 33.805a1.983 1.983 0 0 0-1.984 1.983v14.584a2.012 2.012 0 0 0 1.984 1.983h14.583a2.012 2.012 0 0 0 1.983-1.983V35.787a1.983 1.983 0 0 0-1.983-1.983H36.313Z" fill="#95E1D3"/></svg>