<svg width="36" height="36" fill="none" xmlns="http://www.w3.org/2000/svg"><path d="M18 23.372A5.372 5.372 0 1 1 23.373 18 5.39 5.39 0 0 1 18 23.372Zm0-8.995a3.623 3.623 0 1 0 0 7.246 3.623 3.623 0 0 0 0-7.246Z" fill="#95E1D3"/><path d="M18 29.375a11.375 11.375 0 1 1 0-22.75 11.375 11.375 0 0 1 0 22.75Zm0-21A9.625 9.625 0 1 0 27.625 18 9.642 9.642 0 0 0 18 8.375Z" fill="#95E1D3"/><path d="M18 35.377A17.377 17.377 0 1 1 35.378 18 17.395 17.395 0 0 1 18 35.377Zm0-33.005a15.627 15.627 0 1 0 0 31.255 15.627 15.627 0 0 0 0-31.255Z" fill="#95E1D3"/></svg>