<svg width="56" height="56" fill="none" xmlns="http://www.w3.org/2000/svg"><path d="M28 55.708A27.708 27.708 0 1 1 55.708 28 27.738 27.738 0 0 1 28 55.708Zm0-52.5A24.792 24.792 0 1 0 52.792 28 24.82 24.82 0 0 0 28 3.208Z" fill="#95E1D3"/><path d="M28 43.196A15.196 15.196 0 1 1 43.196 28 15.225 15.225 0 0 1 28 43.196Zm0-27.475A12.28 12.28 0 1 0 40.28 28 12.308 12.308 0 0 0 28 15.72Z" fill="#95E1D3"/><path d="M54.25 29.458H1.75a1.458 1.458 0 1 1 0-2.916h52.5a1.458 1.458 0 1 1 0 2.916Z" fill="#95E1D3"/><path d="M28 55.708a1.458 1.458 0 0 1-1.458-1.458V1.75a1.458 1.458 0 1 1 2.916 0v52.5A1.458 1.458 0 0 1 28 55.708Z" fill="#95E1D3"/></svg>