<svg width="50" height="50" fill="none" xmlns="http://www.w3.org/2000/svg"><path d="M1.667 49.792a1.517 1.517 0 0 1-.846-.263 1.43 1.43 0 0 1-.73-1.196V7.5a1.458 1.458 0 0 1 .934-1.37L15.929.295c.34-.118.71-.118 1.05 0l14.146 5.542L48.013.296A1.342 1.342 0 0 1 49.325.5a1.4 1.4 0 0 1 .583 1.167V42.5a1.429 1.429 0 0 1-.991 1.37l-17.5 5.834c-.32.116-.672.116-.992 0l-14-5.512-14.35 5.512a1.68 1.68 0 0 1-.408.088Zm14.875-8.75a1.18 1.18 0 0 1 .554 0l13.737 5.745 16.13-5.454V3.68l-15.46 5.074c-.32.116-.671.116-.992 0L16.425 3.242 3.008 8.375v37.917l12.921-4.93a.962.962 0 0 1 .496-.204l.117-.116Z" fill="#95E1D3"/><path d="M16.425 44.075a1.459 1.459 0 0 1-1.458-1.458V1.667a1.458 1.458 0 1 1 2.916 0V42.5a1.458 1.458 0 0 1-1.458 1.575Zm14.671 5.717a1.458 1.458 0 0 1-1.458-1.459V7.5a1.458 1.458 0 1 1 2.916 0v40.833a1.458 1.458 0 0 1-1.458 1.459Z" fill="#95E1D3"/></svg>