<svg width="54" height="54" fill="none" xmlns="http://www.w3.org/2000/svg"><path d="M27 45.112a1.458 1.458 0 0 1-1.02-.437L9.353 28.05a1.459 1.459 0 0 1 0-2.07L33.825 1.187a1.196 1.196 0 0 1 1.02-.438h16.772a1.487 1.487 0 0 1 1.458 1.458l.175 16.596a1.4 1.4 0 0 1-.438 1.05L28.021 44.675a1.487 1.487 0 0 1-1.021.438ZM12.417 27 27 41.583 50.333 18.25l-.175-14.583H35.575L12.417 27Z" fill="#95E1D3"/><path d="M35.138 53.25a1.516 1.516 0 0 1-1.021-.408l-32.93-32.93a1.459 1.459 0 0 1 0-2.07 1.4 1.4 0 0 1 2.042 0L36.188 50.77a1.488 1.488 0 0 1 0 2.07 1.572 1.572 0 0 1-1.05.409Z" fill="#95E1D3"/><path d="M12.417 53.075a1.48 1.48 0 0 1-1.05-.438L1.246 42.663a1.488 1.488 0 0 1-.496-1.08c0-.787 0-.904 11.667-12.366a1.457 1.457 0 0 1 2.49 1.035c0 .387-.15.758-.42 1.036-3.15 3.266-8.195 8.254-10.179 10.295l8.109 7.963L22.712 39.22a1.464 1.464 0 1 1 2.071 2.07L13.292 52.639a1.458 1.458 0 0 1-.875.437ZM27 28.458a1.37 1.37 0 0 1-1.02-.437 1.4 1.4 0 0 1 0-2.042l11.666-11.666a1.444 1.444 0 1 1 2.041 2.041L28.021 28.021a1.372 1.372 0 0 1-1.021.437Z" fill="#95E1D3"/></svg>