<svg width="54" height="54" fill="none" xmlns="http://www.w3.org/2000/svg"><path d="M43.042 53.25H10.958A10.208 10.208 0 0 1 .75 43.042V10.958A10.208 10.208 0 0 1 10.958.75h32.084A10.209 10.209 0 0 1 53.25 10.958v32.084A10.209 10.209 0 0 1 43.042 53.25ZM10.958 3.667a7.292 7.292 0 0 0-7.291 7.291v32.084a7.292 7.292 0 0 0 7.291 7.291h32.084a7.292 7.292 0 0 0 7.291-7.291V10.958a7.292 7.292 0 0 0-7.291-7.291H10.958Z" fill="#95E1D3"/><path d="M2.208 41.03a1.401 1.401 0 0 1-1.108-.526 1.43 1.43 0 0 1 .175-2.041L14.983 27a10.208 10.208 0 0 1 14.35 1.313L32.6 32.22a7.262 7.262 0 0 0 10.383.817l7.846-6.855a1.487 1.487 0 0 1 2.071.146 1.43 1.43 0 0 1-.146 2.042l-7.846 6.854a10.18 10.18 0 0 1-14.583-1.138L27 30.267a7.262 7.262 0 0 0-10.238-.934L3.054 40.708a1.575 1.575 0 0 1-.846.321Z" fill="#95E1D3"/></svg>