<svg width="64" height="56" fill="none" xmlns="http://www.w3.org/2000/svg"><path d="M27.158 44.188a1.487 1.487 0 1 1-.058-2.974 1.487 1.487 0 0 1 .058 2.974Zm10.704 0a1.458 1.458 0 1 0 0-2.917 1.458 1.458 0 0 0 0 2.916Z" fill="#95E1D3"/><path d="M38.62 55.65H25.38a12.95 12.95 0 0 1 0-25.9h13.24a12.95 12.95 0 0 1 0 25.9ZM25.38 32.667a10.034 10.034 0 1 0 0 20.066h13.24a10.033 10.033 0 1 0 0-20.066H25.38Z" fill="#95E1D3"/><path d="M55.333 36.925h-7.816a1.458 1.458 0 1 1 0-2.917h7.816a5.338 5.338 0 0 0 5.309-5.308A25.463 25.463 0 0 0 35.237 3.267h-6.154A25.463 25.463 0 0 0 3.65 28.7a5.338 5.338 0 0 0 5.308 5.308h7.525a1.459 1.459 0 0 1 0 2.917h-7.67A8.225 8.225 0 0 1 .588 28.7 28.38 28.38 0 0 1 29.083.35h6.154a28.38 28.38 0 0 1 28.321 28.32 8.254 8.254 0 0 1-8.225 8.255Z" fill="#95E1D3"/><path d="M6.246 28.962A12.6 12.6 0 0 1 1.608 28a1.458 1.458 0 0 1-.816-1.896 1.399 1.399 0 0 1 1.866-.816 10.15 10.15 0 0 0 3.588.67 9.48 9.48 0 0 0 5.337-17.266A1.459 1.459 0 0 1 13.217 6.3a12.395 12.395 0 0 1-6.942 22.662h-.03Zm55.679-.058a18.171 18.171 0 0 1-16.8-18.054 17.72 17.72 0 0 1 1.196-6.446 1.458 1.458 0 0 1 1.896-.816 1.4 1.4 0 0 1 .816 1.866 15.196 15.196 0 0 0 13.009 20.417 1.458 1.458 0 1 1 0 2.917l-.117.116Z" fill="#95E1D3"/></svg>