<svg width="30" height="21" fill="none" xmlns="http://www.w3.org/2000/svg"><path d="M29.333 10.773a.627.627 0 0 1-.133.4l-6.827 9.133a.694.694 0 0 1-.533.28H8.173a.693.693 0 0 1-.546-.28L.8 11.173a.68.68 0 0 1 0-.8L7.627 1.24a.68.68 0 0 1 .546-.267H21.84a.68.68 0 0 1 .533.267l6.827 9.133a.653.653 0 0 1 .133.4Zm-7.826 8.48 6.333-8.48-6.333-8.467h-13L2.16 10.773l6.347 8.48h13Z" fill="#95E1D3"/><path d="M21.773 10.773a.627.627 0 0 1-.133.4l-3.053 4.094a.679.679 0 0 1-.534.266h-6.106a.678.678 0 0 1-.534-.266l-3.08-4.094a.64.64 0 0 1 0-.8l3.054-4.08a.64.64 0 0 1 .533-.266h6.107a.64.64 0 0 1 .533.266l3.107 4.08a.653.653 0 0 1 .106.4ZM17.667 14.2l2.666-3.427-2.666-3.44h-5.334l-2.666 3.44 2.666 3.427h5.334Z" fill="#95E1D3"/></svg>