<svg width="24" height="24" fill="none" xmlns="http://www.w3.org/2000/svg"><path d="M12.44 22.986a11.32 11.32 0 0 1-5.213-1.266.667.667 0 0 1 .613-1.187 10.026 10.026 0 1 0-4-3.693.68.68 0 0 1-.227.92.668.668 0 0 1-.92-.227A11.333 11.333 0 0 1 20.147 3.346 11.333 11.333 0 0 1 14.52 22.8c-.686.127-1.382.19-2.08.186Z" fill="#95E1D3"/><path d="M2.093 23.68a1.573 1.573 0 0 1-1.413-2.2l2.027-4.56a.68.68 0 0 1 .893-.334.666.666 0 0 1 .333.88l-2.04 4.56a.2.2 0 0 0 0 .24.226.226 0 0 0 .24.067l5.134-1.827a.654.654 0 0 1 .853.4.667.667 0 0 1-.4.854l-5.093 1.826c-.17.064-.352.095-.534.094Z" fill="#95E1D3"/></svg>