<svg width="32" height="38" fill="none" xmlns="http://www.w3.org/2000/svg"><path d="M16.417 19a9.167 9.167 0 1 1 9.166-9.167A9.183 9.183 0 0 1 16.417 19Zm0-16.667a7.5 7.5 0 1 0 7.5 7.5 7.517 7.517 0 0 0-7.5-7.5Z" fill="#fff"/><path d="M1.417 32.333a.833.833 0 0 1-.834-.833A14.184 14.184 0 0 1 14.75 17.333h3.333a.833.833 0 1 1 0 1.667H14.75a12.5 12.5 0 0 0-12.5 12.5.833.833 0 0 1-.833.833Zm22.5 5a.833.833 0 0 1-.834-.833V23.167a.833.833 0 0 1 1.667 0V36.5a.834.834 0 0 1-.833.833Z" fill="#fff"/><path d="M30.583 30.667H17.25a.833.833 0 0 1 0-1.667h13.333a.833.833 0 0 1 0 1.667Z" fill="#fff"/></svg>