<svg width="22" height="35" fill="none" xmlns="http://www.w3.org/2000/svg"><path d="M10.685 16.265a5.705 5.705 0 1 1 0-11.41 5.705 5.705 0 0 1 0 11.41Zm0-9.66a3.955 3.955 0 1 0 0 7.91 3.955 3.955 0 0 0 0-7.91Z" fill="#F38281"/><path d="M20.555 13.395h-.14a.892.892 0 0 1-.665-.997v-.28a3.883 3.883 0 0 0 0-.368c.017-.18.017-.362 0-.542v-.683a8.873 8.873 0 0 0-17.745 0v.56c.049.233.131.457.245.665v.718a.885.885 0 0 1-1.75.262v-.63a4.043 4.043 0 0 1 0-.857V10.7a10.622 10.622 0 0 1 21.245 0v.648a4.766 4.766 0 0 1-.087.857l-.158.455a.858.858 0 0 1-.945.735Z" fill="#F38281"/><path d="M11 34.063a.823.823 0 0 1-.612-.263C1.113 24.525.5 11.155.378 10.595a.875.875 0 1 1 1.75-.07c0 .123.717 13.265 9.485 22.05a.84.84 0 0 1 0 1.225.824.824 0 0 1-.613.263Z" fill="#F38281"/><path d="M11 34.063a.822.822 0 0 1-.612-.263.84.84 0 0 1 0-1.225c8.75-8.75 9.467-21.927 9.485-22.05a.804.804 0 0 1 .91-.84.892.892 0 0 1 .84.91c0 .56-.735 14-10.01 23.205a.822.822 0 0 1-.613.263Z" fill="#F38281"/></svg>