<svg width="15" height="12" fill="none" xmlns="http://www.w3.org/2000/svg"><path d="M10.544 8.152H7.702a.339.339 0 1 1 0-.678h2.842a.34.34 0 0 1 0 .678Zm1.912-.21a.264.264 0 0 1-.122 0 .332.332 0 0 1-.196-.434l1.614-4.313a.339.339 0 0 1 .434-.197.352.352 0 0 1 .203.44l-1.614 4.293a.353.353 0 0 1-.319.21Zm-6.924.128a.332.332 0 0 1-.318-.23l-2.13-6.47H1.05a.34.34 0 0 1-.34-.339.346.346 0 0 1 .34-.339h2.278a.346.346 0 0 1 .32.231l2.23 6.7a.332.332 0 0 1-.21.427.305.305 0 0 1-.136.02Z" fill="#fff"/><path d="M6.577 11.122a2.035 2.035 0 1 1 0-4.07 2.035 2.035 0 0 1 0 4.07Zm0-3.39a1.356 1.356 0 1 0 0 2.712 1.356 1.356 0 0 0 0-2.712Zm5.093 3.39a2.035 2.035 0 1 1 0-4.069 2.035 2.035 0 0 1 0 4.07Zm0-3.39a1.357 1.357 0 1 0 0 2.713 1.357 1.357 0 0 0 0-2.713Z" fill="#fff"/></svg>